<?xml version="1.0" encoding="UTF-8"?>
<svg id="Layer_1" xmlns="http://www.w3.org/2000/svg" version="1.1" xmlns:xlink="http://www.w3.org/1999/xlink" viewBox="0 0 48 48">
  <!-- Generator: Adobe Illustrator 30.1.0, SVG Export Plug-In . SVG Version: 2.1.1 Build 136)  -->
  <defs>
    <style>
      .st0 {
        fill: url(#linear-gradient1);
      }

      .st1 {
        fill: none;
        stroke: #000;
        stroke-miterlimit: 10;
        stroke-width: 4px;
      }

      .st2 {
        fill: url(#linear-gradient);
      }
    </style>
    <linearGradient id="linear-gradient" x1="0" y1="24" x2="48" y2="24" gradientTransform="translate(57.94 24) rotate(135)" gradientUnits="userSpaceOnUse">
      <stop offset=".04" stop-color="#91f8ff"/>
      <stop offset=".08" stop-color="#93e6ff"/>
      <stop offset=".14" stop-color="#99c7ff"/>
      <stop offset=".15" stop-color="#94c2ff"/>
      <stop offset=".16" stop-color="#88b4ff"/>
      <stop offset=".18" stop-color="#749cff"/>
      <stop offset=".19" stop-color="#587cff"/>
      <stop offset=".21" stop-color="#3a59ff"/>
      <stop offset=".25" stop-color="#437eff"/>
      <stop offset=".31" stop-color="#4ea7ff"/>
      <stop offset=".36" stop-color="#54bfff"/>
      <stop offset=".38" stop-color="#57c9ff"/>
      <stop offset=".44" stop-color="#369bff"/>
      <stop offset=".47" stop-color="#379dff"/>
      <stop offset=".48" stop-color="#3ea6ff"/>
      <stop offset=".5" stop-color="#48b5ff"/>
      <stop offset=".51" stop-color="#57caff"/>
      <stop offset=".51" stop-color="#5ed3ff"/>
      <stop offset=".53" stop-color="#5edeff"/>
      <stop offset=".56" stop-color="#5ef2ff"/>
      <stop offset=".58" stop-color="#5eeeff"/>
      <stop offset=".6" stop-color="#5ee2ff"/>
      <stop offset=".62" stop-color="#5eceff"/>
      <stop offset=".64" stop-color="#5eb3ff"/>
      <stop offset=".65" stop-color="#5e90ff"/>
      <stop offset=".67" stop-color="#5e77ff"/>
      <stop offset=".69" stop-color="#537bff"/>
      <stop offset=".73" stop-color="#3687ff"/>
      <stop offset=".74" stop-color="#2c8cff"/>
      <stop offset=".75" stop-color="#3293ff"/>
      <stop offset=".77" stop-color="#43a7ff"/>
      <stop offset=".8" stop-color="#5fc8ff"/>
      <stop offset=".83" stop-color="#83f2ff"/>
      <stop offset=".88" stop-color="#5ec9ff"/>
      <stop offset=".96" stop-color="#248bff"/>
    </linearGradient>
    <linearGradient id="linear-gradient1" x1="5.17" y1="24" x2="42.83" y2="24" xlink:href="#linear-gradient"/>
  </defs>
  <circle class="st2" cx="24" cy="24" r="24"/>
  <g>
    <path class="st0" d="M24,42.83c-5.03,0-9.76-1.96-13.31-5.51-3.56-3.56-5.51-8.29-5.51-13.31s1.96-9.76,5.51-13.31c3.56-3.56,8.28-5.52,13.31-5.52s9.76,1.96,13.31,5.52c7.34,7.34,7.34,19.29,0,26.63-3.56,3.56-8.29,5.51-13.31,5.51Z"/>
    <path d="M24,7.67c4.36,0,8.46,1.7,11.55,4.78,6.37,6.37,6.37,16.73,0,23.09-3.08,3.08-7.18,4.78-11.55,4.78s-8.46-1.7-11.55-4.78c-6.37-6.37-6.37-16.73,0-23.09,3.08-3.08,7.18-4.78,11.55-4.78M24,2.67c-5.46,0-10.92,2.08-15.08,6.25C.59,17.25.59,30.75,8.92,39.08c4.16,4.16,9.62,6.25,15.08,6.25s10.92-2.08,15.08-6.25c8.33-8.33,8.33-21.83,0-30.16-4.16-4.16-9.62-6.25-15.08-6.25h0Z"/>
  </g>
  <g>
    <line class="st1" x1="18.31" y1="5.88" x2="18.31" y2="42.12"/>
    <line class="st1" x1="29.69" y1="5.88" x2="29.69" y2="42.12"/>
  </g>
</svg>