<?xml version="1.0" encoding="UTF-8"?>
<svg id="Layer_1" xmlns="http://www.w3.org/2000/svg" version="1.1" xmlns:xlink="http://www.w3.org/1999/xlink" viewBox="0 0 48 48">
  <!-- Generator: Adobe Illustrator 30.1.0, SVG Export Plug-In . SVG Version: 2.1.1 Build 136)  -->
  <defs>
    <style>
      .st0 {
        fill: url(#linear-gradient);
      }
    </style>
    <linearGradient id="linear-gradient" x1="0" y1="24" x2="48" y2="24" gradientTransform="translate(57.94 24) rotate(135)" gradientUnits="userSpaceOnUse">
      <stop offset=".04" stop-color="#91f8ff"/>
      <stop offset=".08" stop-color="#93e6ff"/>
      <stop offset=".14" stop-color="#99c7ff"/>
      <stop offset=".15" stop-color="#94c2ff"/>
      <stop offset=".16" stop-color="#88b4ff"/>
      <stop offset=".18" stop-color="#749cff"/>
      <stop offset=".19" stop-color="#587cff"/>
      <stop offset=".21" stop-color="#3a59ff"/>
      <stop offset=".25" stop-color="#437eff"/>
      <stop offset=".31" stop-color="#4ea7ff"/>
      <stop offset=".36" stop-color="#54bfff"/>
      <stop offset=".38" stop-color="#57c9ff"/>
      <stop offset=".44" stop-color="#369bff"/>
      <stop offset=".47" stop-color="#379dff"/>
      <stop offset=".48" stop-color="#3ea6ff"/>
      <stop offset=".5" stop-color="#48b5ff"/>
      <stop offset=".51" stop-color="#57caff"/>
      <stop offset=".51" stop-color="#5ed3ff"/>
      <stop offset=".53" stop-color="#5edeff"/>
      <stop offset=".56" stop-color="#5ef2ff"/>
      <stop offset=".58" stop-color="#5eeeff"/>
      <stop offset=".6" stop-color="#5ee2ff"/>
      <stop offset=".62" stop-color="#5eceff"/>
      <stop offset=".64" stop-color="#5eb3ff"/>
      <stop offset=".65" stop-color="#5e90ff"/>
      <stop offset=".67" stop-color="#5e77ff"/>
      <stop offset=".69" stop-color="#537bff"/>
      <stop offset=".73" stop-color="#3687ff"/>
      <stop offset=".74" stop-color="#2c8cff"/>
      <stop offset=".75" stop-color="#3293ff"/>
      <stop offset=".77" stop-color="#43a7ff"/>
      <stop offset=".8" stop-color="#5fc8ff"/>
      <stop offset=".83" stop-color="#83f2ff"/>
      <stop offset=".88" stop-color="#5ec9ff"/>
      <stop offset=".96" stop-color="#248bff"/>
    </linearGradient>
  </defs>
  <circle class="st0" cx="24" cy="24" r="24"/>
  <path d="M24,10.08c3.72,0,7.21,1.45,9.84,4.08,5.43,5.43,5.43,14.25,0,19.68-2.63,2.63-6.12,4.08-9.84,4.08s-7.21-1.45-9.84-4.08c-5.43-5.43-5.43-14.25,0-19.68,2.63-2.63,6.12-4.08,9.84-4.08M24,5.08c-4.84,0-9.68,1.85-13.38,5.54-7.39,7.39-7.39,19.36,0,26.75,3.69,3.69,8.53,5.54,13.38,5.54s9.68-1.85,13.38-5.54c7.39-7.39,7.39-19.36,0-26.75-3.69-3.69-8.53-5.54-13.38-5.54h0Z"/>
</svg>